<svg xmlns="http://www.w3.org/2000/svg" viewBox="0 0 493.2 123.5" xml:space="preserve"><path fill="#FFFFFF" d="M46.2 37.3h37.3v83.1H46.2zM0 0h37.3v120.4H0zM127.8 103.7c0-10.9-8.9-19.8-19.8-19.8s-19.8 8.9-19.8 19.8 8.9 19.8 19.8 19.8 19.8-8.8 19.8-19.8M175.6 37.3v48.3c0 4.3-1.7 6.4-5.2 6.4s-5.3-2.1-5.4-6.4V37.3h-37.3v39c0 13.7 3.2 24.4 9.7 32.2 8.3 9.9 19.2 14.4 32.8 14.4s24.5-4.5 32.8-14.4c6.5-7.7 9.7-18.4 9.7-32.2v-39h-37.1zM291.3 73h-3l-17.4-29.2V73h-3.3V37.3h2.9L288 66.6V37.3h3.3V73zM416.6 73h-3l-17.4-29.2V73h-3.3V37.3h2.9l17.4 29.3V37.3h3.3l.1 35.7zM253.2 73h-18.8V37.3h3.3v32.5h15.6V73zM260.4 73h-3.3V37.3h3.3V73zM335.4 73.4c-7.1 0-12-5.1-12-12.4V49.3c0-7.4 4.9-12.5 12-12.5s12 5.2 12 12.5V61c0 7.2-5 12.4-12 12.4zm0-33.5c-5.2 0-8.7 3.7-8.7 9.2V61c0 5.5 3.5 9.2 8.7 9.2s8.7-3.7 8.7-9.2V49.1c0-5.5-3.5-9.2-8.7-9.2zm4.5-4.7c-1.1 0-2-.9-2-2s.9-2 2-2 2 .9 2 2-.9 2-2 2zm-9.1 0c-1.1 0-2-.9-2-2s.9-2 2-2 2 .9 2 2-.9 2-2 2zM357.2 73h-3.3V37.3h10.2c7.4 0 12.2 4.8 12.2 12.2v1.3c0 7.4-4.6 12-12.2 12h-7V73zm0-13.5h6.9c5.6 0 9-3.3 9-8.8v-1.3c0-5.7-3.3-9-9-9h-6.9v19.1zM385.2 73h-3.3V37.3h3.3V73zM435 73.4c-7 0-12-5.1-12-12.4V49.1c0-7.3 4.9-12.4 12-12.4 6.5-.1 11.8 5 12 11.5V49h-3.3v-.2c.3-4.7-3.3-8.7-7.9-9h-.7c-5.4 0-8.7 3.7-8.7 10V61c0 5.5 3.5 9.2 8.7 9.2s8.7-3.7 8.7-9.2v-1.9H435v-3h12V61c0 7.4-5 12.4-12 12.4zM322.7 73h-3.9l-12.4-16.5h-3.7V73h-3.3V37.3h3.3v16h3.7l10.6-16h3.8l-11.6 17.6L322.7 73zM289.5 120.4h-3L269 91v29.4h-3.3V84.8h2.9l17.4 29.3V84.8h3.3l.2 35.6zM318.9 120.4h-3.1v-.1l-11.7-35.6h3.5v.1l9.8 30.4 9.9-30.5h3.5v.2l-11.9 35.5zM245.9 120.8c-7.1 0-12-5.1-12-12.4V84.8h3.3v23.7c0 5.5 3.5 9.2 8.7 9.2s8.7-3.7 8.7-9.2V84.8h3.3v23.7c0 7.2-4.9 12.3-12 12.3zM300.4 120.4h-3.3V84.8h3.3v35.6zM381.5 120.4h-4l-8.5-11.2h-6.6v11.2h-3.3V84.7h10.4c7.4 0 12 4.5 12 11.7v1.3c.3 5.5-3.7 10.2-9.1 10.9l9.1 11.8zM362.4 106h6.9c5.6 0 9-3.1 9-8.2v-1.4c0-5.4-3.2-8.4-9-8.4h-6.9v18zM418.3 120.4H415V84.7h3.3v35.7zM354.3 120.4h-19.9V84.8h19.5V88h-16.2v12.9h11.9v3h-11.9v13.4h16.6v3.1zM397.9 101.2c-4.7-1.2-9.1-2.3-9.1-7.3 0-4.1 2.8-6.6 7.9-6.6 3.9 0 8 2.2 8.2 8.4h3.3c-.2-8.5-6-11.6-11.4-11.6-7.1 0-11.2 3.7-11.2 9.7 0 7.4 5.9 8.9 11.1 10.2 4.5 1.1 8.8 2.2 8.8 7 0 5.1-4.4 7-8.6 7-5.4 0-8.7-3.5-8.7-9.5v-.3H385v.2c0 7.7 4.7 12.6 11.9 12.6s11.8-4 11.8-10.1c0-7-5.5-8.4-10.8-9.7zM434.1 120.4h-3.3V88h-9.5v-3.2h22V88h-9.2v32.4zM448 84.7l9 19.3 9-19.3h3.5l-10.9 22.4v13.3h-3v-13.3l-10.9-22.4h3.3z"/></svg>
