<?xml version="1.0" encoding="UTF-8" standalone="no"?>
<!-- Created with Inkscape (http://www.inkscape.org/) -->

<svg
   width="10.583235mm"
   height="12.828271mm"
   viewBox="0 0 10.583235 12.828271"
   version="1.1"
   id="svg1"
   xmlns="http://www.w3.org/2000/svg"
   xmlns:svg="http://www.w3.org/2000/svg">
  <defs
     id="defs1" />
  <g
     id="layer1"
     transform="translate(-10.923979,-198.91033)">
    <rect
       style="fill:#01889f;fill-opacity:1;stroke:none;stroke-width:1"
       id="rect1-48-9-4"
       width="1.3229166"
       height="10.583333"
       x="10.923982"
       y="198.91048" />
    <rect
       style="fill:#01889f;fill-opacity:1;stroke:none;stroke-width:1"
       id="rect3-7-4-5"
       width="1.3229166"
       height="1.3229166"
       x="13.56981"
       y="202.87921" />
    <path
       id="rect3-2-3-4-1"
       style="fill:#01889f;fill-opacity:1;stroke:none;stroke-width:1"
       d="m 13.569714,198.91034 v 2.64583 h 1.322917 v -1.32291 h 1.322917 v 1.32291 h 1.322916 v 1.32292 h 1.322917 v 1.32292 h -1.322917 v 1.32291 h -1.322916 v 1.32292 h -1.322917 v 1.32292 h 1.322917 v 1.32291 h 1.322916 1.322917 v -1.32291 h -1.322917 v -1.34514 h 1.322917 v 1.34514 h 1.322917 v -1.32292 h 1.322916 v -1.32292 h -1.322916 v -1.32291 h 1.322916 v -1.32292 h -1.322916 v -1.32292 h 1.322916 v -1.32291 h -1.322916 v -1.32292 h -1.322917 -1.322917 -1.322916 -1.322917 z" />
    <path
       style="font-weight:500;font-size:1.86972px;line-height:1.1;font-family:Orbitron;-inkscape-font-specification:'Orbitron Medium';text-align:center;text-anchor:middle;fill:#01889f"
       d="m 10.923982,211.30853 v -1.10313 q 0,-0.0673 0.03178,-0.12153 0.03365,-0.0561 0.08788,-0.0879 0.05609,-0.0337 0.123402,-0.0337 h 0.858201 q 0.06731,0 0.123402,0.0337 0.05609,0.0318 0.08788,0.0879 0.03365,0.0542 0.03365,0.12153 v 1.10313 h -0.203799 v -0.47117 h -0.940469 v 0.47117 h -0.20193 z m 0.20193,-0.6731 h 0.940469 v -0.42442 q 0,-0.0187 -0.01309,-0.0318 -0.01309,-0.015 -0.03178,-0.015 h -0.848853 q -0.0187,0 -0.03366,0.015 -0.01309,0.0131 -0.01309,0.0318 v 0.42442 z m 1.357417,0.6731 v -1.34433 h 1.101265 q 0.06731,0 0.123402,0.0337 0.05609,0.0336 0.08788,0.0898 0.03365,0.0542 0.03365,0.11966 v 0.37768 q 0,0.0673 -0.03365,0.1234 -0.03179,0.0542 -0.08788,0.0879 -0.05609,0.0318 -0.123402,0.0318 l -0.899335,0.002 v 0.47865 z m 0.248673,-0.68431 h 0.848853 q 0.0187,0 0.03179,-0.0131 0.01309,-0.0131 0.01309,-0.0318 v -0.36646 q 0,-0.0187 -0.01309,-0.0318 -0.01309,-0.015 -0.03179,-0.015 h -0.848853 q -0.0187,0 -0.03365,0.015 -0.01309,0.0131 -0.01309,0.0318 v 0.36646 q 0,0.0187 0.01309,0.0318 0.01496,0.0131 0.03365,0.0131 z m 1.394812,1.09939 v 0 -0.2038 h 0.663751 q 0.0187,0 0.03178,-0.015 0.01496,-0.0131 0.01496,-0.0318 v -0.16454 h -0.658142 q -0.06544,0 -0.121532,-0.0318 -0.05609,-0.0337 -0.08975,-0.0897 -0.03179,-0.0561 -0.03179,-0.12153 v -0.83764 h 0.201929 v 0.83203 q 0,0.0187 0.01309,0.0337 0.01496,0.0131 0.03365,0.0131 h 0.60579 q 0.0187,0 0.03178,-0.0131 0.01496,-0.0149 0.01496,-0.0337 v -0.83203 h 0.201929 v 1.25272 q 0,0.0673 -0.03365,0.12153 -0.03179,0.0561 -0.08788,0.0879 -0.05422,0.0336 -0.121532,0.0336 z m 1.621046,-0.41508 v 0 -1.14427 h -0.572134 v -0.20193 h 1.346198 v 0.20193 H 15.94979 v 1.14427 z m 0.970767,0.41508 v 0 -0.2038 h 0.66375 q 0.0187,0 0.03178,-0.015 0.01496,-0.0131 0.01496,-0.0318 v -0.16454 h -0.658141 q -0.06544,0 -0.121532,-0.0318 -0.05609,-0.0337 -0.08975,-0.0897 -0.03178,-0.0561 -0.03178,-0.12153 v -0.83764 h 0.20193 v 0.83203 q 0,0.0187 0.01309,0.0337 0.01496,0.0131 0.03365,0.0131 h 0.605789 q 0.0187,0 0.03178,-0.0131 0.01496,-0.0149 0.01496,-0.0337 v -0.83203 h 0.20193 v 1.25272 q 0,0.0673 -0.03365,0.12153 -0.03178,0.0561 -0.08788,0.0879 -0.05422,0.0336 -0.121532,0.0336 z m 1.10566,0.015 v 0 -1.51447 h 0.860071 q 0.06731,0 0.121532,0.0336 0.05609,0.0337 0.08788,0.0879 0.03365,0.0542 0.03365,0.12153 v 0.59831 q 0,0.0673 -0.03365,0.12153 -0.03178,0.0542 -0.08788,0.0879 -0.05422,0.0336 -0.121532,0.0336 h -0.658141 v 0.43004 z m 0.248673,-0.63197 h 0.605789 q 0.0187,0 0.03178,-0.0131 0.01496,-0.0149 0.01496,-0.0337 v -0.58709 q 0,-0.0187 -0.01496,-0.0318 -0.01309,-0.015 -0.03178,-0.015 H 18.07296 q -0.0187,0 -0.03365,0.015 -0.01309,0.0131 -0.01309,0.0318 v 0.58709 q 0,0.0187 0.01309,0.0337 0.01496,0.0131 0.03365,0.0131 z m 1.230274,0.20193 q -0.06731,0 -0.121531,-0.0336 -0.05422,-0.0337 -0.08788,-0.0879 -0.03365,-0.0542 -0.03365,-0.12153 v -0.59831 q 0,-0.0673 0.03365,-0.12153 0.03365,-0.0542 0.08788,-0.0879 0.05422,-0.0336 0.121531,-0.0336 h 0.617008 q 0.06731,0 0.121532,0.0336 0.05609,0.0318 0.08788,0.0879 0.03365,0.0561 0.03365,0.12153 v 0.40012 H 19.2621 v 0.19258 q 0,0.0187 0.01309,0.0337 0.01496,0.0131 0.03365,0.0131 h 0.854463 v 0.20193 h -0.860072 z m -0.04113,-0.63009 h 0.697406 v -0.20567 q 0,-0.0187 -0.01309,-0.0318 -0.01309,-0.015 -0.03179,-0.015 h -0.60579 q -0.0187,0 -0.03365,0.015 -0.01309,0.0131 -0.01309,0.0318 z m 1.322549,0.63009 q -0.06731,0 -0.121532,-0.0336 -0.05422,-0.0337 -0.08788,-0.0879 -0.03366,-0.0542 -0.03366,-0.12153 v -0.0281 h 0.20193 v 0.0224 q 0,0.0187 0.01309,0.0337 0.01496,0.0131 0.03365,0.0131 h 0.605789 q 0.0187,0 0.03178,-0.0131 0.01309,-0.0149 0.01309,-0.0337 V 210.914 q 0,-0.0187 -0.01309,-0.0318 -0.01309,-0.015 -0.03178,-0.015 h -0.611398 q -0.06731,0 -0.121532,-0.0318 -0.05422,-0.0336 -0.08788,-0.0879 -0.03366,-0.0561 -0.03366,-0.1234 v -0.15706 q 0,-0.0673 0.03366,-0.12153 0.03365,-0.0542 0.08788,-0.0879 0.05422,-0.0336 0.121532,-0.0336 h 0.617007 q 0.06731,0 0.121532,0.0336 0.05609,0.0337 0.08788,0.0879 0.03365,0.0542 0.03365,0.12153 v 0.028 h -0.2038 v -0.0224 q 0,-0.0187 -0.01309,-0.0318 -0.01309,-0.015 -0.03178,-0.015 h -0.605789 q -0.0187,0 -0.03365,0.015 -0.01309,0.0131 -0.01309,0.0318 v 0.14584 q 0,0.0187 0.01309,0.0337 0.01496,0.0131 0.03365,0.0131 h 0.611398 q 0.06731,0 0.121532,0.0337 0.05609,0.0318 0.08788,0.0879 0.03365,0.0542 0.03365,0.12153 v 0.15706 q 0,0.0673 -0.03365,0.12153 -0.03178,0.0542 -0.08788,0.0879 -0.05422,0.0336 -0.121532,0.0336 h -0.617007 z"
       id="text13-8"
       aria-label="APyTypes" />
  </g>
</svg>
