<?xml version="1.0" encoding="UTF-8" standalone="no"?>
<svg
   xmlns:dc="http://purl.org/dc/elements/1.1/"
   xmlns:cc="http://creativecommons.org/ns#"
   xmlns:rdf="http://www.w3.org/1999/02/22-rdf-syntax-ns#"
   xmlns:svg="http://www.w3.org/2000/svg"
   xmlns="http://www.w3.org/2000/svg"
   xmlns:sodipodi="http://sodipodi.sourceforge.net/DTD/sodipodi-0.dtd"
   xmlns:inkscape="http://www.inkscape.org/namespaces/inkscape"
   width="95.543816mm"
   height="14.07595mm"
   viewBox="0 0 95.543816 14.075949"
   version="1.1"
   id="svg1"
   sodipodi:docname="apytypeslogo.svg"
   inkscape:version="1.0.2 (e86c870879, 2021-01-15)">
  <metadata
     id="metadata5441">
    <rdf:RDF>
      <cc:Work
         rdf:about="">
        <dc:format>image/svg+xml</dc:format>
        <dc:type
           rdf:resource="http://purl.org/dc/dcmitype/StillImage" />
        <dc:title></dc:title>
      </cc:Work>
    </rdf:RDF>
  </metadata>
  <sodipodi:namedview
     pagecolor="#ffffff"
     bordercolor="#666666"
     borderopacity="1"
     objecttolerance="10"
     gridtolerance="10"
     guidetolerance="10"
     inkscape:pageopacity="0"
     inkscape:pageshadow="2"
     inkscape:window-width="2560"
     inkscape:window-height="1337"
     id="namedview5439"
     showgrid="false"
     inkscape:zoom="3.6832712"
     inkscape:cx="160.27137"
     inkscape:cy="16.502609"
     inkscape:window-x="0"
     inkscape:window-y="28"
     inkscape:window-maximized="1"
     inkscape:current-layer="layer1"
     inkscape:document-rotation="0"
     fit-margin-top="0"
     fit-margin-left="0"
     fit-margin-right="0"
     fit-margin-bottom="0" />
  <defs
     id="defs1" />
  <g
     id="layer1"
     transform="translate(-10.923982,-181.44836)">
    <g
       id="g4"
       style="fill:#01889f;fill-opacity:1">
      <rect
         style="fill:#01889f;fill-opacity:1;stroke:none;stroke-width:1"
         id="rect1-48-9-6"
         width="1.3229166"
         height="10.583333"
         x="10.923982"
         y="181.44844" />
      <rect
         style="fill:#01889f;fill-opacity:1;stroke:none;stroke-width:1"
         id="rect3-7-4-7"
         width="1.3229166"
         height="1.3229166"
         x="13.56981"
         y="185.41719" />
      <path
         id="rect3-2-3-4-6"
         style="fill:#01889f;fill-opacity:1;stroke:none;stroke-width:1"
         d="m 13.569714,181.44836 v 2.64583 h 1.322917 v -1.32292 h 1.322917 v 1.32292 h 1.322916 v 1.32292 h 1.322917 v 1.32291 h -1.322917 v 1.32292 h -1.322916 v 1.32292 h -1.322917 v 1.32291 h 1.322917 v 1.32292 h 1.322916 1.322917 v -1.32292 h -1.322917 v -1.34513 h 1.322917 v 1.34513 h 1.322917 v -1.32291 h 1.322916 v -1.32292 h -1.322916 v -1.32292 h 1.322916 v -1.32291 h -1.322916 v -1.32292 h 1.322916 v -1.32292 h -1.322916 v -1.32291 h -1.322917 -1.322917 -1.322916 -1.322917 z" />
    </g>
    <path
       style="font-weight:500;font-size:14.8167px;line-height:1.1;font-family:Orbitron;-inkscape-font-specification:'Orbitron Medium';text-align:center;text-anchor:middle;fill:#01889f"
       d="m 23.095626,192.11647 v -8.74185 q 0,-0.5334 0.251884,-0.96309 0.2667,-0.4445 0.696385,-0.69638 0.444501,-0.2667 0.977902,-0.2667 h 6.800865 q 0.533401,0 0.977902,0.2667 0.444501,0.25188 0.696385,0.69638 0.266701,0.42969 0.266701,0.96309 v 8.74185 h -1.61502 v -3.73381 h -7.4528 v 3.73381 z m 1.600204,-5.33401 h 7.4528 v -3.36339 q 0,-0.14817 -0.103717,-0.25189 -0.103717,-0.11853 -0.251884,-0.11853 h -6.726782 q -0.148167,0 -0.266701,0.11853 -0.103716,0.10372 -0.103716,0.25189 z m 10.75693,5.33401 v -10.65321 h 8.727036 q 0.533401,0 0.977902,0.2667 0.444501,0.2667 0.696385,0.71121 0.266701,0.42968 0.266701,0.94826 v 2.99298 q 0,0.5334 -0.266701,0.9779 -0.251884,0.42968 -0.696385,0.69638 -0.444501,0.25189 -0.977902,0.25189 l -7.126832,0.0148 v 3.79307 z m 1.970621,-5.42291 h 6.726782 q 0.148167,0 0.251884,-0.10372 0.103717,-0.10372 0.103717,-0.25188 v -2.90408 q 0,-0.14816 -0.103717,-0.25188 -0.103717,-0.11853 -0.251884,-0.11853 h -6.726782 q -0.148167,0 -0.266701,0.11853 -0.103716,0.10372 -0.103716,0.25188 v 2.90408 q 0,0.14816 0.103716,0.25188 0.118534,0.10372 0.266701,0.10372 z m 11.053264,8.71222 v 0 -1.61502 h 5.259929 q 0.148167,0 0.251883,-0.11854 0.118534,-0.10371 0.118534,-0.25188 v -1.30387 h -5.215478 q -0.518585,0 -0.963086,-0.25188 -0.444501,-0.2667 -0.711201,-0.71121 -0.251884,-0.4445 -0.251884,-0.96308 v -6.63788 h 1.600203 v 6.59343 q 0,0.14817 0.103717,0.2667 0.118534,0.10372 0.266701,0.10372 h 4.800611 q 0.148167,0 0.251883,-0.10372 0.118534,-0.11853 0.118534,-0.2667 v -6.59343 h 1.600204 v 9.92719 q 0,0.5334 -0.266701,0.96308 -0.251884,0.4445 -0.696385,0.69639 -0.429684,0.2667 -0.963085,0.2667 z m 12.846071,-3.28931 v 0 -9.06782 h -4.533911 v -1.6002 h 10.668024 v 1.6002 h -4.53391 v 9.06782 z m 7.692894,3.28931 v 0 -1.61502 h 5.259929 q 0.148167,0 0.251884,-0.11854 0.118533,-0.10371 0.118533,-0.25188 v -1.30387 h -5.215478 q -0.518585,0 -0.963086,-0.25188 -0.444501,-0.2667 -0.711201,-0.71121 -0.251884,-0.4445 -0.251884,-0.96308 v -6.63788 h 1.600203 v 6.59343 q 0,0.14817 0.103717,0.2667 0.118534,0.10372 0.266701,0.10372 h 4.800611 q 0.148167,0 0.251884,-0.10372 0.118533,-0.11853 0.118533,-0.2667 v -6.59343 h 1.600204 v 9.92719 q 0,0.5334 -0.266701,0.96308 -0.251884,0.4445 -0.696385,0.69639 -0.429684,0.2667 -0.963085,0.2667 z m 8.761869,0.11853 v 0 -12.00153 h 6.815682 q 0.533401,0 0.963085,0.2667 0.444501,0.26671 0.696385,0.69639 0.266701,0.42968 0.266701,0.96309 v 4.74134 q 0,0.5334 -0.266701,0.96308 -0.251884,0.42969 -0.696385,0.69639 -0.429684,0.2667 -0.963085,0.2667 h -5.215479 v 3.40784 z m 1.970621,-5.00804 h 4.80061 q 0.148167,0 0.251884,-0.10372 0.118534,-0.11853 0.118534,-0.2667 v -4.65244 q 0,-0.14817 -0.118534,-0.25189 -0.103717,-0.11853 -0.251884,-0.11853 H 79.7481 q -0.148167,0 -0.266701,0.11853 -0.103717,0.10372 -0.103717,0.25189 v 4.65244 q 0,0.14817 0.103717,0.2667 0.118534,0.10372 0.266701,0.10372 z m 9.749379,1.6002 q -0.533401,0 -0.963085,-0.2667 -0.429685,-0.2667 -0.696385,-0.69639 -0.266701,-0.42968 -0.266701,-0.96308 v -4.74134 q 0,-0.53341 0.266701,-0.96309 0.2667,-0.42968 0.696385,-0.69639 0.429684,-0.2667 0.963085,-0.2667 h 4.889511 q 0.533401,0 0.963086,0.2667 0.444501,0.25189 0.696385,0.69639 0.2667,0.4445 0.2667,0.96309 v 3.17077 h -7.141649 v 1.52612 q 0,0.14817 0.103717,0.2667 0.118533,0.10372 0.2667,0.10372 h 6.771232 v 1.6002 z m -0.325967,-4.99323 h 5.526629 v -1.62983 q 0,-0.14817 -0.103717,-0.25189 -0.103717,-0.11853 -0.251884,-0.11853 h -4.800611 q -0.148167,0 -0.2667,0.11853 -0.103717,0.10372 -0.103717,0.25189 z m 10.480606,4.99323 q -0.533401,0 -0.963085,-0.2667 -0.429685,-0.2667 -0.696385,-0.69639 -0.266701,-0.42968 -0.266701,-0.96308 v -0.22225 h 1.600204 v 0.1778 q 0,0.14817 0.103717,0.2667 0.118533,0.10372 0.2667,0.10372 h 4.800612 q 0.14817,0 0.25188,-0.10372 0.10372,-0.11853 0.10372,-0.2667 v -1.1557 q 0,-0.14817 -0.10372,-0.25189 -0.10371,-0.11853 -0.25188,-0.11853 h -4.845062 q -0.533401,0 -0.963085,-0.25188 -0.429685,-0.26671 -0.696385,-0.69639 -0.266701,-0.4445 -0.266701,-0.9779 v -1.2446 q 0,-0.53341 0.266701,-0.96309 0.2667,-0.42968 0.696385,-0.69639 0.429684,-0.2667 0.963085,-0.2667 h 4.889512 q 0.5334,0 0.96308,0.2667 0.44451,0.26671 0.69639,0.69639 0.2667,0.42968 0.2667,0.96309 v 0.22225 h -1.61502 v -0.1778 q 0,-0.14817 -0.10372,-0.25189 -0.10371,-0.11853 -0.25188,-0.11853 h -4.800612 q -0.148167,0 -0.2667,0.11853 -0.103717,0.10372 -0.103717,0.25189 v 1.1557 q 0,0.14817 0.103717,0.2667 0.118533,0.10372 0.2667,0.10372 h 4.845062 q 0.5334,0 0.96308,0.2667 0.44451,0.25188 0.69639,0.69638 0.2667,0.42969 0.2667,0.96309 v 1.2446 q 0,0.5334 -0.2667,0.96308 -0.25188,0.42969 -0.69639,0.69639 -0.42968,0.2667 -0.96308,0.2667 z"
       id="text13-2"
       aria-label="APyTypes" />
  </g>
</svg>
